<svg width="15" height="15" viewBox="0 0 15 15" fill="none" xmlns="http://www.w3.org/2000/svg">
<g clip-path="url(#clip0_73_208)">
<path d="M15 7.67217C15 7.16234 14.9578 6.64976 14.8678 6.14819H7.65039V9.03631H11.7835C11.612 9.96778 11.0609 10.7918 10.254 11.3154V13.1893H12.7197C14.1677 11.8831 15 9.954 15 7.67217Z" fill="#4285F4"/>
<path d="M7.65042 15.0001C9.71415 15.0001 11.4545 14.3359 12.7226 13.1895L10.2568 11.3155C9.57076 11.773 8.6851 12.0321 7.65324 12.0321C5.65698 12.0321 3.96439 10.712 3.35708 8.93726H0.812561V10.8691C2.11153 13.4017 4.75727 15.0001 7.65042 15.0001Z" fill="#34A853"/>
<path d="M3.35427 8.93721C3.03374 8.00574 3.03374 6.9971 3.35427 6.06563V4.13379H0.812561C-0.272725 6.25303 -0.272725 8.74981 0.812561 10.869L3.35427 8.93721Z" fill="#FBBC04"/>
<path d="M7.65042 2.96805C8.74133 2.95151 9.79569 3.35387 10.5858 4.09243L12.7704 1.95115C11.3871 0.677952 9.55108 -0.0220295 7.65042 1.71351e-05C4.75727 1.71351e-05 2.11153 1.5984 0.812561 4.13377L3.35427 6.06561C3.95877 4.28809 5.65417 2.96805 7.65042 2.96805Z" fill="#EA4335"/>
</g>
<defs>
<clipPath id="clip0_73_208">
<rect width="15" height="15" fill="white"/>
</clipPath>
</defs>
</svg>
