<svg width="8" height="15" viewBox="0 0 8 15" fill="none" xmlns="http://www.w3.org/2000/svg">
<path d="M5.99065 8.15998H5.15063C3.83068 8.15998 2.55067 7.20011 2.55067 4.79989C2.55067 2.30007 3.75078 1.28001 4.97059 1.28001H5.99065V8.15998ZM7.31061 -9.53674e-07H5.03079C2.79036 -9.53674e-07 0.890874 1.70029 0.890874 5.00018C0.890874 6.98012 1.81079 8.44017 3.45089 9.1598L0.390692 14.6799C0.290546 14.8599 0.390692 15 0.550487 15H1.97059C2.09044 15 2.17088 14.9601 2.21083 14.8599L4.99084 9.43999H5.99065V14.8599C5.99065 14.9201 6.05085 15 6.13075 15H7.37081C7.49065 15 7.5306 14.9398 7.5306 14.8402V0.199745C7.5306 0.0601969 7.45071 -9.53674e-07 7.31061 -9.53674e-07Z" fill="#ED1E24"/>
</svg>
