<svg width="69" height="50" viewBox="0 0 69 50" fill="none" xmlns="http://www.w3.org/2000/svg">
<path d="M68.5 25.0066C68.5 37.994 57.9784 48.5219 45 48.5219C32.0216 48.5219 21.5 37.994 21.5 25.0066C21.5 12.0192 32.0216 1.49133 45 1.49133C57.9784 1.49133 68.5 12.0192 68.5 25.0066Z" fill="white" stroke="#A1C4FD"/>
<path d="M45.3536 25.3601C45.5488 25.1649 45.5488 24.8483 45.3536 24.653L42.1716 21.4711C41.9763 21.2758 41.6597 21.2758 41.4645 21.4711C41.2692 21.6663 41.2692 21.9829 41.4645 22.1782L44.2929 25.0066L41.4645 27.835C41.2692 28.0303 41.2692 28.3469 41.4645 28.5421C41.6597 28.7374 41.9763 28.7374 42.1716 28.5421L45.3536 25.3601ZM-4.36836e-08 25.5066L45 25.5066L45 24.5066L4.36836e-08 24.5066L-4.36836e-08 25.5066Z" fill="#A1C4FD"/>
</svg>
