<svg width="128" height="16" viewBox="0 0 128 16" fill="none" xmlns="http://www.w3.org/2000/svg">
<path d="M7.33333 12.6667C10.2789 12.6667 12.6667 10.2789 12.6667 7.33333C12.6667 4.38781 10.2789 2 7.33333 2C4.38781 2 2 4.38781 2 7.33333C2 10.2789 4.38781 12.6667 7.33333 12.6667Z" stroke="#010624" stroke-linecap="round" stroke-linejoin="round"/>
<path d="M14 14L11.1 11.1" stroke="#010624" stroke-linecap="round" stroke-linejoin="round"/>
<path d="M69.8933 3.07335C69.5528 2.73269 69.1485 2.46245 68.7036 2.27807C68.2586 2.0937 67.7817 1.9988 67.3 1.9988C66.8183 1.9988 66.3414 2.0937 65.8964 2.27807C65.4515 2.46245 65.0472 2.73269 64.7067 3.07335L64 3.78002L63.2933 3.07335C62.6055 2.38555 61.6727 1.99915 60.7 1.99915C59.7273 1.99915 58.7945 2.38555 58.1067 3.07335C57.4189 3.76114 57.0325 4.69399 57.0325 5.66668C57.0325 6.63937 57.4189 7.57222 58.1067 8.26002L58.8133 8.96668L64 14.1533L69.1867 8.96668L69.8933 8.26002C70.234 7.91951 70.5042 7.51522 70.6886 7.07025C70.873 6.62528 70.9679 6.14834 70.9679 5.66668C70.9679 5.18502 70.873 4.70808 70.6886 4.26311C70.5042 3.81814 70.234 3.41385 69.8933 3.07335V3.07335Z" stroke="#010624" stroke-linecap="round" stroke-linejoin="round"/>
<path d="M120.593 0.966655L125.927 3.63332C126.149 3.74371 126.336 3.91387 126.466 4.12468C126.597 4.3355 126.666 4.5786 126.667 4.82665V11.18C126.666 11.428 126.597 11.6711 126.466 11.882C126.336 12.0928 126.149 12.2629 125.927 12.3733L120.593 15.04C120.408 15.1327 120.204 15.1809 119.997 15.1809C119.789 15.1809 119.585 15.1327 119.4 15.04L114.067 12.3733C113.845 12.2615 113.658 12.0899 113.529 11.8779C113.399 11.6658 113.332 11.4218 113.333 11.1733V4.82665C113.333 4.5786 113.403 4.3355 113.533 4.12468C113.664 3.91387 113.851 3.74371 114.073 3.63332L119.407 0.966655C119.591 0.875038 119.794 0.827362 120 0.827362C120.206 0.827362 120.409 0.875038 120.593 0.966655V0.966655Z" stroke="#010624" stroke-linecap="round" stroke-linejoin="round"/>
<path d="M113.547 4.10665L120 7.33332L126.453 4.10665" stroke="#010624" stroke-linecap="round" stroke-linejoin="round"/>
<path d="M120 15.1733V7.33334" stroke="#010624" stroke-linecap="round" stroke-linejoin="round"/>
</svg>
